<svg width="402" height="315" viewBox="0 0 402 315" fill="none" xmlns="http://www.w3.org/2000/svg">
<g filter="url(#filter0_f_4_16)">
<circle cx="103.5" cy="146.5" r="66" stroke="#FF4E01" stroke-width="5"/>
</g>
<circle cx="103.5" cy="146.5" r="70" stroke="#FF4E01" stroke-width="5"/>
<g filter="url(#filter1_f_4_16)">
<g filter="url(#filter2_i_4_16)">
<path d="M190.315 227C191.515 228.6 190.515 230 188.515 230H154.115C153.715 230 152.515 229.6 152.315 229.4L105.715 171.8C101.715 176 62.7148 220.2 62.7148 220.2V71.8C62.7148 71 63.7148 70 64.9148 70H91.3148C92.5148 70 93.3148 71 93.3148 71.8V144.6L153.515 70.6C153.715 70.4 154.915 70 155.315 70H187.915C190.115 70 191.115 71.6 189.715 73L126.115 151.4L190.315 227Z" fill="white"/>
</g>
<g filter="url(#filter3_i_4_16)">
<path d="M236.114 166C236.514 166 236.914 166.4 236.914 166.72V208.64C236.914 222.16 226.514 230 212.914 230C199.714 230 188.914 221.84 188.914 208.64V177.6H200.994V208.56C201.714 214.88 206.994 218.24 212.914 218.24C218.914 218.24 224.834 215.12 224.834 208.64V166.72C224.834 166.4 225.154 166 225.714 166H236.114ZM296.585 214.56V194.24L280.265 226.96C280.185 227.2 279.785 227.44 279.545 227.44H269.705C269.465 227.44 268.985 227.2 268.905 226.96L251.545 193.36V229.28C251.545 229.6 251.145 230 250.665 230H240.105C239.545 230 239.305 229.6 239.305 229.28V166.72C239.305 166.4 239.545 166 240.105 166H250.825C251.065 166 251.545 166.24 251.625 166.48L274.585 213.36L296.425 166.48C296.585 166.24 296.985 166 297.305 166H307.865C308.425 166 308.745 166.4 308.745 166.72V214.56H296.585ZM362.513 229.04C362.753 229.52 362.353 230 361.793 230H350.753C350.513 230 350.113 229.84 350.033 229.52L337.393 193.84L324.913 229.52C324.833 229.84 324.433 230 324.113 230H313.153C312.433 230 312.113 229.52 312.353 229.04L336.593 166.48C336.833 165.84 337.953 165.84 338.193 166.48L362.513 229.04Z" fill="white"/>
</g>
</g>
<g filter="url(#filter4_d_4_16)">
<mask id="path-5-outside-1_4_16" maskUnits="userSpaceOnUse" x="56" y="64" width="131" height="162" fill="black">
<rect fill="white" x="56" y="64" width="131" height="162"/>
<path d="M185.315 222C186.515 223.6 185.515 225 183.515 225H149.115C148.715 225 147.515 224.6 147.315 224.4L100.715 166.8C96.7148 171 57.7148 215.2 57.7148 215.2V66.8C57.7148 66 58.7148 65 59.9148 65H86.3148C87.5148 65 88.3148 66 88.3148 66.8V139.6L148.515 65.6C148.715 65.4 149.915 65 150.315 65H182.915C185.115 65 186.115 66.6 184.715 68L121.115 146.4L185.315 222Z"/>
</mask>
<g filter="url(#filter5_i_4_16)">
<path d="M185.315 222C186.515 223.6 185.515 225 183.515 225H149.115C148.715 225 147.515 224.6 147.315 224.4L100.715 166.8C96.7148 171 57.7148 215.2 57.7148 215.2V66.8C57.7148 66 58.7148 65 59.9148 65H86.3148C87.5148 65 88.3148 66 88.3148 66.8V139.6L148.515 65.6C148.715 65.4 149.915 65 150.315 65H182.915C185.115 65 186.115 66.6 184.715 68L121.115 146.4L185.315 222Z" fill="#FF4E01"/>
</g>
<path d="M185.315 222L186.115 221.4L186.097 221.376L186.077 221.353L185.315 222ZM147.315 224.4L146.537 225.029L146.571 225.07L146.608 225.107L147.315 224.4ZM100.715 166.8L101.492 166.171L100.776 165.286L99.9907 166.11L100.715 166.8ZM57.7148 215.2H56.7148V217.845L58.4647 215.862L57.7148 215.2ZM88.3148 139.6H87.3148V142.414L89.0906 140.231L88.3148 139.6ZM148.515 65.6L147.808 64.8929L147.771 64.9291L147.739 64.9689L148.515 65.6ZM184.715 68L184.008 67.2929L183.971 67.3296L183.938 67.37L184.715 68ZM121.115 146.4L120.338 145.77L119.815 146.415L120.353 147.047L121.115 146.4ZM184.515 222.6C184.952 223.182 184.829 223.472 184.771 223.563C184.671 223.72 184.319 224 183.515 224V226C184.711 226 185.858 225.58 186.459 224.637C187.1 223.628 186.878 222.418 186.115 221.4L184.515 222.6ZM183.515 224H149.115V226H183.515V224ZM149.115 224C149.138 224 149.083 223.999 148.923 223.961C148.785 223.929 148.621 223.881 148.456 223.826C148.29 223.771 148.141 223.714 148.032 223.665C147.977 223.641 147.944 223.623 147.929 223.615C147.898 223.597 147.951 223.622 148.022 223.693L146.608 225.107C146.729 225.228 146.863 225.309 146.938 225.352C147.028 225.403 147.124 225.45 147.216 225.491C147.401 225.574 147.614 225.654 147.824 225.724C148.034 225.794 148.257 225.859 148.463 225.908C148.647 225.951 148.892 226 149.115 226V224ZM148.092 223.771L101.492 166.171L99.9374 167.429L146.537 225.029L148.092 223.771ZM99.9907 166.11C97.9743 168.228 87.2054 180.349 76.9662 191.912C71.8408 197.7 66.8406 203.356 63.1217 207.566C61.2622 209.671 59.7231 211.414 58.6488 212.631C58.1116 213.239 57.6907 213.716 57.4041 214.041C57.2607 214.203 57.151 214.328 57.077 214.411C57.0401 214.453 57.0121 214.485 56.9933 214.506C56.9839 214.517 56.9768 214.525 56.9721 214.53C56.9698 214.533 56.968 214.535 56.9668 214.536C56.9662 214.537 56.9658 214.538 56.9655 214.538C56.9652 214.538 56.965 214.538 57.7148 215.2C58.4647 215.862 58.4648 215.861 58.4651 215.861C58.4654 215.861 58.4659 215.86 58.4665 215.86C58.4676 215.858 58.4694 215.856 58.4718 215.854C58.4765 215.848 58.4836 215.84 58.4929 215.83C58.5117 215.808 58.5397 215.777 58.5766 215.735C58.6505 215.651 58.7603 215.527 58.9036 215.364C59.1902 215.04 59.611 214.563 60.1481 213.954C61.2223 212.738 62.7612 210.995 64.6205 208.89C68.3391 204.681 73.3388 199.025 78.4635 193.238C88.7243 181.651 99.4554 169.572 101.439 167.49L99.9907 166.11ZM58.7148 215.2V66.8H56.7148V215.2H58.7148ZM58.7148 66.8C58.7148 66.8045 58.7154 66.756 58.7677 66.6601C58.8183 66.5675 58.9029 66.458 59.0233 66.3526C59.269 66.1377 59.5917 66 59.9148 66V64C59.0379 64 58.2607 64.3623 57.7063 64.8474C57.1766 65.3109 56.7148 66.013 56.7148 66.8H58.7148ZM59.9148 66H86.3148V64H59.9148V66ZM86.3148 66C86.6237 66 86.8761 66.1255 87.0577 66.3071C87.2562 66.5056 87.3148 66.7122 87.3148 66.8H89.3148C89.3148 65.4477 88.0671 64 86.3148 64V66ZM87.3148 66.8V139.6H89.3148V66.8H87.3148ZM89.0906 140.231L149.291 66.2311L147.739 64.9689L87.5391 138.969L89.0906 140.231ZM149.222 66.3071C149.151 66.3782 149.098 66.4028 149.129 66.3854C149.144 66.3768 149.177 66.3595 149.232 66.3349C149.341 66.2861 149.49 66.2289 149.656 66.1737C149.821 66.1188 149.985 66.0714 150.123 66.0388C150.283 66.0011 150.338 66 150.315 66V64C150.092 64 149.847 64.0489 149.663 64.0924C149.457 64.1411 149.234 64.2062 149.024 64.2763C148.814 64.3461 148.601 64.4264 148.416 64.5089C148.324 64.5499 148.228 64.5966 148.138 64.6481C148.063 64.6909 147.929 64.7718 147.808 64.8929L149.222 66.3071ZM150.315 66H182.915V64H150.315V66ZM182.915 66C183.812 66 184.207 66.3244 184.311 66.4949C184.356 66.5697 184.373 66.6462 184.353 66.7462C184.331 66.8575 184.251 67.0498 184.008 67.2929L185.422 68.7071C186.352 67.7769 186.673 66.5292 186.019 65.455C185.423 64.4756 184.218 64 182.915 64V66ZM183.938 67.37L120.338 145.77L121.891 147.03L185.491 68.63L183.938 67.37ZM120.353 147.047L184.553 222.647L186.077 221.353L121.877 145.753L120.353 147.047Z" fill="#BC3900" mask="url(#path-5-outside-1_4_16)"/>
<mask id="path-7-outside-2_4_16" maskUnits="userSpaceOnUse" x="182" y="160" width="177" height="66" fill="black">
<rect fill="white" x="182" y="160" width="177" height="66"/>
<path d="M231.114 161C231.514 161 231.914 161.4 231.914 161.72V203.64C231.914 217.16 221.514 225 207.914 225C194.714 225 183.914 216.84 183.914 203.64V172.6H195.994V203.56C196.714 209.88 201.994 213.24 207.914 213.24C213.914 213.24 219.834 210.12 219.834 203.64V161.72C219.834 161.4 220.154 161 220.714 161H231.114ZM291.585 209.56V189.24L275.265 221.96C275.185 222.2 274.785 222.44 274.545 222.44H264.705C264.465 222.44 263.985 222.2 263.905 221.96L246.545 188.36V224.28C246.545 224.6 246.145 225 245.665 225H235.105C234.545 225 234.305 224.6 234.305 224.28V161.72C234.305 161.4 234.545 161 235.105 161H245.825C246.065 161 246.545 161.24 246.625 161.48L269.585 208.36L291.425 161.48C291.585 161.24 291.985 161 292.305 161H302.865C303.425 161 303.745 161.4 303.745 161.72V209.56H291.585ZM357.513 224.04C357.753 224.52 357.353 225 356.793 225H345.753C345.513 225 345.113 224.84 345.033 224.52L332.393 188.84L319.913 224.52C319.833 224.84 319.433 225 319.113 225H308.153C307.433 225 307.113 224.52 307.353 224.04L331.593 161.48C331.833 160.84 332.953 160.84 333.193 161.48L357.513 224.04Z"/>
</mask>
<g filter="url(#filter6_i_4_16)">
<path d="M231.114 161C231.514 161 231.914 161.4 231.914 161.72V203.64C231.914 217.16 221.514 225 207.914 225C194.714 225 183.914 216.84 183.914 203.64V172.6H195.994V203.56C196.714 209.88 201.994 213.24 207.914 213.24C213.914 213.24 219.834 210.12 219.834 203.64V161.72C219.834 161.4 220.154 161 220.714 161H231.114ZM291.585 209.56V189.24L275.265 221.96C275.185 222.2 274.785 222.44 274.545 222.44H264.705C264.465 222.44 263.985 222.2 263.905 221.96L246.545 188.36V224.28C246.545 224.6 246.145 225 245.665 225H235.105C234.545 225 234.305 224.6 234.305 224.28V161.72C234.305 161.4 234.545 161 235.105 161H245.825C246.065 161 246.545 161.24 246.625 161.48L269.585 208.36L291.425 161.48C291.585 161.24 291.985 161 292.305 161H302.865C303.425 161 303.745 161.4 303.745 161.72V209.56H291.585ZM357.513 224.04C357.753 224.52 357.353 225 356.793 225H345.753C345.513 225 345.113 224.84 345.033 224.52L332.393 188.84L319.913 224.52C319.833 224.84 319.433 225 319.113 225H308.153C307.433 225 307.113 224.52 307.353 224.04L331.593 161.48C331.833 160.84 332.953 160.84 333.193 161.48L357.513 224.04Z" fill="#FF4E01"/>
</g>
<path d="M183.914 172.6V171.6H182.914V172.6H183.914ZM195.994 172.6H196.994V171.6H195.994V172.6ZM195.994 203.56H194.994V203.617L195 203.673L195.994 203.56ZM231.114 162C231.048 162 231.008 161.984 230.995 161.978C230.988 161.975 230.984 161.972 230.983 161.972C230.982 161.971 230.982 161.971 230.982 161.971C230.982 161.971 230.982 161.971 230.982 161.971C230.982 161.971 230.981 161.971 230.981 161.97C230.98 161.97 230.979 161.968 230.978 161.967C230.975 161.963 230.969 161.955 230.962 161.941C230.95 161.919 230.914 161.843 230.914 161.72H232.914C232.914 161.18 232.609 160.754 232.346 160.509C232.067 160.248 231.635 160 231.114 160V162ZM230.914 161.72V203.64H232.914V161.72H230.914ZM230.914 203.64C230.914 210.122 228.432 215.177 224.367 218.628C220.284 222.093 214.529 224 207.914 224V226C214.899 226 221.144 223.987 225.661 220.152C230.196 216.303 232.914 210.678 232.914 203.64H230.914ZM207.914 224C201.514 224 195.754 222.022 191.611 218.507C187.483 215.006 184.914 209.944 184.914 203.64H182.914C182.914 210.536 185.745 216.154 190.317 220.033C194.874 223.898 201.114 226 207.914 226V224ZM184.914 203.64V172.6H182.914V203.64H184.914ZM183.914 173.6H195.994V171.6H183.914V173.6ZM194.994 172.6V203.56H196.994V172.6H194.994ZM195 203.673C195.793 210.634 201.635 214.24 207.914 214.24V212.24C202.353 212.24 197.635 209.126 196.988 203.447L195 203.673ZM207.914 214.24C211.07 214.24 214.267 213.422 216.705 211.684C219.175 209.923 220.834 207.231 220.834 203.64H218.834C218.834 206.529 217.533 208.637 215.544 210.056C213.521 211.498 210.758 212.24 207.914 212.24V214.24ZM220.834 203.64V161.72H218.834V203.64H220.834ZM220.834 161.72C220.834 161.804 220.814 161.864 220.798 161.898C220.781 161.933 220.762 161.956 220.746 161.971C220.708 162.007 220.683 162 220.714 162V160C219.668 160 218.834 160.784 218.834 161.72H220.834ZM220.714 162H231.114V160H220.714V162ZM291.585 209.56H290.585V210.56H291.585V209.56ZM291.585 189.24H292.585L290.69 188.794L291.585 189.24ZM275.265 221.96L274.37 221.514L274.338 221.577L274.316 221.644L275.265 221.96ZM263.905 221.96L264.853 221.644L264.829 221.57L264.793 221.501L263.905 221.96ZM246.545 188.36L247.433 187.901L245.545 188.36H246.545ZM246.625 161.48L245.676 161.796L245.697 161.86L245.727 161.92L246.625 161.48ZM269.585 208.36L268.687 208.8L269.607 210.68L270.491 208.782L269.585 208.36ZM291.425 161.48L290.593 160.925L290.55 160.989L290.518 161.058L291.425 161.48ZM303.745 209.56V210.56H304.745V209.56H303.745ZM292.585 209.56V189.24H290.585V209.56H292.585ZM290.69 188.794L274.37 221.514L276.16 222.406L292.48 189.686L290.69 188.794ZM274.316 221.644C274.356 221.524 274.413 221.463 274.421 221.454C274.435 221.439 274.437 221.441 274.424 221.449C274.412 221.457 274.404 221.46 274.407 221.458C274.409 221.458 274.42 221.454 274.439 221.45C274.457 221.446 274.494 221.44 274.545 221.44V223.44C274.933 223.44 275.284 223.274 275.505 223.131C275.716 222.996 276.066 222.718 276.213 222.276L274.316 221.644ZM274.545 221.44H264.705V223.44H274.545V221.44ZM264.705 221.44C264.754 221.44 264.786 221.446 264.795 221.448C264.806 221.45 264.808 221.451 264.801 221.449C264.786 221.444 264.761 221.433 264.735 221.418C264.707 221.403 264.702 221.395 264.714 221.407C264.721 221.413 264.74 221.432 264.764 221.465C264.787 221.498 264.825 221.557 264.853 221.644L262.956 222.276C263.05 222.557 263.225 222.752 263.346 222.866C263.478 222.99 263.622 223.087 263.754 223.162C263.983 223.29 264.339 223.44 264.705 223.44V221.44ZM264.793 221.501L247.433 187.901L245.656 188.819L263.016 222.419L264.793 221.501ZM245.545 188.36V224.28H247.545V188.36H245.545ZM245.545 224.28C245.545 224.156 245.582 224.077 245.597 224.049C245.606 224.032 245.614 224.022 245.618 224.016C245.623 224.011 245.625 224.008 245.626 224.007C245.627 224.007 245.627 224.007 245.629 224.006C245.633 224.004 245.645 224 245.665 224V226C246.182 226 246.629 225.788 246.943 225.513C247.233 225.259 247.545 224.827 247.545 224.28H245.545ZM245.665 224H235.105V226H245.665V224ZM235.105 224C235.085 224 235.098 223.997 235.13 224.01C235.163 224.024 235.198 224.047 235.227 224.08C235.281 224.137 235.305 224.205 235.305 224.28H233.305C233.305 224.675 233.449 225.103 233.762 225.44C234.095 225.799 234.567 226 235.105 226V224ZM235.305 224.28V161.72H233.305V224.28H235.305ZM235.305 161.72C235.305 161.795 235.281 161.863 235.227 161.92C235.198 161.953 235.163 161.976 235.13 161.99C235.098 162.003 235.085 162 235.105 162V160C234.567 160 234.095 160.201 233.762 160.56C233.449 160.897 233.305 161.325 233.305 161.72H235.305ZM235.105 162H245.825V160H235.105V162ZM245.825 162C245.775 162 245.743 161.994 245.734 161.992C245.723 161.99 245.721 161.989 245.728 161.991C245.743 161.996 245.768 162.007 245.794 162.022C245.822 162.037 245.828 162.045 245.816 162.033C245.809 162.027 245.789 162.008 245.765 161.975C245.742 161.942 245.705 161.883 245.676 161.796L247.573 161.164C247.48 160.883 247.305 160.688 247.184 160.574C247.052 160.45 246.907 160.353 246.775 160.278C246.547 160.15 246.191 160 245.825 160V162ZM245.727 161.92L268.687 208.8L270.483 207.92L247.523 161.04L245.727 161.92ZM270.491 208.782L292.331 161.902L290.518 161.058L268.678 207.938L270.491 208.782ZM292.257 162.035C292.245 162.052 292.237 162.061 292.235 162.064C292.233 162.066 292.234 162.065 292.239 162.06C292.251 162.05 292.27 162.036 292.295 162.022C292.32 162.008 292.34 162 292.35 161.997C292.354 161.995 292.353 161.996 292.347 161.997C292.341 161.998 292.327 162 292.305 162V160C291.918 160 291.568 160.136 291.314 160.278C291.061 160.421 290.784 160.638 290.593 160.925L292.257 162.035ZM292.305 162H302.865V160H292.305V162ZM302.865 162C302.896 162 302.871 162.007 302.832 161.971C302.817 161.956 302.798 161.933 302.781 161.898C302.765 161.864 302.745 161.804 302.745 161.72H304.745C304.745 160.784 303.911 160 302.865 160V162ZM302.745 161.72V209.56H304.745V161.72H302.745ZM303.745 208.56H291.585V210.56H303.745V208.56ZM357.513 224.04L356.581 224.402L356.598 224.446L356.619 224.487L357.513 224.04ZM345.033 224.52L346.004 224.277L345.992 224.231L345.976 224.186L345.033 224.52ZM332.393 188.84L333.336 188.506L332.387 185.828L331.45 188.51L332.393 188.84ZM319.913 224.52L318.97 224.19L318.954 224.233L318.943 224.277L319.913 224.52ZM307.353 224.04L308.248 224.487L308.269 224.445L308.286 224.401L307.353 224.04ZM331.593 161.48L332.526 161.841L332.53 161.831L331.593 161.48ZM333.193 161.48L332.257 161.831L332.261 161.842L333.193 161.48ZM356.619 224.487C356.597 224.443 356.577 224.37 356.587 224.282C356.596 224.197 356.63 224.13 356.664 224.086C356.73 224.001 356.792 224 356.793 224V226C357.354 226 357.897 225.759 358.243 225.314C358.608 224.845 358.708 224.194 358.408 223.593L356.619 224.487ZM356.793 224H345.753V226H356.793V224ZM345.753 224C345.778 224 345.794 224.002 345.802 224.003C345.811 224.004 345.815 224.006 345.817 224.006C345.818 224.006 345.822 224.007 345.83 224.012C345.83 224.012 345.955 224.082 346.004 224.277L344.063 224.763C344.192 225.278 344.557 225.588 344.837 225.748C345.117 225.908 345.446 226 345.753 226V224ZM345.976 224.186L333.336 188.506L331.451 189.174L344.091 224.854L345.976 224.186ZM331.45 188.51L318.97 224.19L320.857 224.85L333.337 189.17L331.45 188.51ZM318.943 224.277C318.994 224.075 319.127 224.001 319.133 223.998C319.141 223.993 319.14 223.995 319.13 223.997C319.12 224 319.112 224 319.113 224V226C319.423 226 319.767 225.926 320.074 225.762C320.38 225.599 320.753 225.285 320.884 224.763L318.943 224.277ZM319.113 224H308.153V226H319.113V224ZM308.153 224C308 224 308.079 223.952 308.183 224.086C308.235 224.153 308.268 224.238 308.274 224.326C308.279 224.411 308.258 224.467 308.248 224.487L306.459 223.593C306.19 224.131 306.197 224.791 306.604 225.314C306.988 225.808 307.586 226 308.153 226V224ZM308.286 224.401L332.526 161.841L330.661 161.119L306.421 223.679L308.286 224.401ZM332.53 161.831C332.495 161.923 332.432 161.974 332.4 161.992C332.376 162.006 332.373 162 332.393 162C332.414 162 332.411 162.006 332.386 161.992C332.354 161.974 332.292 161.923 332.257 161.831L334.13 161.129C333.813 160.285 332.987 160 332.393 160C331.8 160 330.974 160.285 330.657 161.129L332.53 161.831ZM332.261 161.842L356.581 224.402L358.445 223.678L334.125 161.118L332.261 161.842Z" fill="#BC3900" mask="url(#path-7-outside-2_4_16)"/>
</g>
<defs>
<filter id="filter0_f_4_16" x="33" y="76" width="141" height="141" filterUnits="userSpaceOnUse" color-interpolation-filters="sRGB">
<feFlood flood-opacity="0" result="BackgroundImageFix"/>
<feBlend mode="normal" in="SourceGraphic" in2="BackgroundImageFix" result="shape"/>
<feGaussianBlur stdDeviation="1" result="effect1_foregroundBlur_4_16"/>
</filter>
<filter id="filter1_f_4_16" x="58.7148" y="66" width="308.039" height="168" filterUnits="userSpaceOnUse" color-interpolation-filters="sRGB">
<feFlood flood-opacity="0" result="BackgroundImageFix"/>
<feBlend mode="normal" in="SourceGraphic" in2="BackgroundImageFix" result="shape"/>
<feGaussianBlur stdDeviation="2" result="effect1_foregroundBlur_4_16"/>
</filter>
<filter id="filter2_i_4_16" x="62.7148" y="70" width="128.8" height="164" filterUnits="userSpaceOnUse" color-interpolation-filters="sRGB">
<feFlood flood-opacity="0" result="BackgroundImageFix"/>
<feBlend mode="normal" in="SourceGraphic" in2="BackgroundImageFix" result="shape"/>
<feColorMatrix in="SourceAlpha" type="matrix" values="0 0 0 0 0 0 0 0 0 0 0 0 0 0 0 0 0 0 127 0" result="hardAlpha"/>
<feOffset dy="4"/>
<feGaussianBlur stdDeviation="2"/>
<feComposite in2="hardAlpha" operator="arithmetic" k2="-1" k3="1"/>
<feColorMatrix type="matrix" values="0 0 0 0 0 0 0 0 0 0 0 0 0 0 0 0 0 0 0.25 0"/>
<feBlend mode="normal" in2="shape" result="effect1_innerShadow_4_16"/>
</filter>
<filter id="filter3_i_4_16" x="188.914" y="165.84" width="173.839" height="68.16" filterUnits="userSpaceOnUse" color-interpolation-filters="sRGB">
<feFlood flood-opacity="0" result="BackgroundImageFix"/>
<feBlend mode="normal" in="SourceGraphic" in2="BackgroundImageFix" result="shape"/>
<feColorMatrix in="SourceAlpha" type="matrix" values="0 0 0 0 0 0 0 0 0 0 0 0 0 0 0 0 0 0 127 0" result="hardAlpha"/>
<feOffset dy="4"/>
<feGaussianBlur stdDeviation="2"/>
<feComposite in2="hardAlpha" operator="arithmetic" k2="-1" k3="1"/>
<feColorMatrix type="matrix" values="0 0 0 0 0 0 0 0 0 0 0 0 0 0 0 0 0 0 0.25 0"/>
<feBlend mode="normal" in2="shape" result="effect1_innerShadow_4_16"/>
</filter>
<filter id="filter4_d_4_16" x="53.7148" y="65" width="308.039" height="168" filterUnits="userSpaceOnUse" color-interpolation-filters="sRGB">
<feFlood flood-opacity="0" result="BackgroundImageFix"/>
<feColorMatrix in="SourceAlpha" type="matrix" values="0 0 0 0 0 0 0 0 0 0 0 0 0 0 0 0 0 0 127 0" result="hardAlpha"/>
<feOffset dy="4"/>
<feGaussianBlur stdDeviation="2"/>
<feComposite in2="hardAlpha" operator="out"/>
<feColorMatrix type="matrix" values="0 0 0 0 0 0 0 0 0 0 0 0 0 0 0 0 0 0 0.25 0"/>
<feBlend mode="normal" in2="BackgroundImageFix" result="effect1_dropShadow_4_16"/>
<feBlend mode="normal" in="SourceGraphic" in2="effect1_dropShadow_4_16" result="shape"/>
</filter>
<filter id="filter5_i_4_16" x="57.7148" y="65" width="128.8" height="164" filterUnits="userSpaceOnUse" color-interpolation-filters="sRGB">
<feFlood flood-opacity="0" result="BackgroundImageFix"/>
<feBlend mode="normal" in="SourceGraphic" in2="BackgroundImageFix" result="shape"/>
<feColorMatrix in="SourceAlpha" type="matrix" values="0 0 0 0 0 0 0 0 0 0 0 0 0 0 0 0 0 0 127 0" result="hardAlpha"/>
<feOffset dy="4"/>
<feGaussianBlur stdDeviation="2"/>
<feComposite in2="hardAlpha" operator="arithmetic" k2="-1" k3="1"/>
<feColorMatrix type="matrix" values="0 0 0 0 0 0 0 0 0 0 0 0 0 0 0 0 0 0 0.25 0"/>
<feBlend mode="normal" in2="shape" result="effect1_innerShadow_4_16"/>
</filter>
<filter id="filter6_i_4_16" x="183.914" y="160.84" width="173.839" height="68.16" filterUnits="userSpaceOnUse" color-interpolation-filters="sRGB">
<feFlood flood-opacity="0" result="BackgroundImageFix"/>
<feBlend mode="normal" in="SourceGraphic" in2="BackgroundImageFix" result="shape"/>
<feColorMatrix in="SourceAlpha" type="matrix" values="0 0 0 0 0 0 0 0 0 0 0 0 0 0 0 0 0 0 127 0" result="hardAlpha"/>
<feOffset dy="4"/>
<feGaussianBlur stdDeviation="2"/>
<feComposite in2="hardAlpha" operator="arithmetic" k2="-1" k3="1"/>
<feColorMatrix type="matrix" values="0 0 0 0 0 0 0 0 0 0 0 0 0 0 0 0 0 0 0.25 0"/>
<feBlend mode="normal" in2="shape" result="effect1_innerShadow_4_16"/>
</filter>
</defs>
</svg>
